<svg width="20" height="19" viewBox="0 0 20 19" fill="none" xmlns="http://www.w3.org/2000/svg">
<path d="M1.7 3.4H3.4V5.95H11.9V3.4H13.6V7.65H15.3V3.4C15.3 2.465 14.535 1.7 13.6 1.7H10.047C9.69 0.714 8.755 0 7.65 0C6.545 0 5.61 0.714 5.253 1.7H1.7C0.765 1.7 0 2.465 0 3.4V15.3C0 16.235 0.765 17 1.7 17H6.8V15.3H1.7V3.4ZM7.65 1.7C8.1175 1.7 8.5 2.0825 8.5 2.55C8.5 3.0175 8.1175 3.4 7.65 3.4C7.1825 3.4 6.8 3.0175 6.8 2.55C6.8 2.0825 7.1825 1.7 7.65 1.7Z" fill="#383B3C"/>
<path d="M15.6128 12.9388L17.0709 14.3969L17.4483 8.91604L11.9674 9.29343L13.462 10.788C11.3698 12.8802 9.32199 13.7615 7.00002 13.5318C9.24112 14.936 12.3191 15.5033 15.6128 12.9388Z" fill="#383B3C"/>
</svg>
