<svg width="25" height="21" viewBox="0 0 25 21" fill="none" xmlns="http://www.w3.org/2000/svg">
<path d="M20.6128 14.939L22.0709 16.3971L22.4483 10.9163L16.9674 11.2937L18.462 12.7883C16.3698 14.8805 14.322 15.7618 12 15.532C14.2411 16.9362 17.3191 17.5036 20.6128 14.939Z" fill="#383B3C"/>
<mask id="path-2-inside-1_1661_6800" fill="white">
<path fill-rule="evenodd" clip-rule="evenodd" d="M12 2V4H8V2H12ZM2 17V6H18V10H20V6C20 4.89 19.11 4 18 4H14V2C14 0.89 13.11 0 12 0H8C6.89 0 6 0.89 6 2V4H2C0.89 4 0.00999999 4.89 0.00999999 6L0 17C0 18.11 0.89 19 2 19H13V17H2Z"/>
</mask>
<path fill-rule="evenodd" clip-rule="evenodd" d="M12 2V4H8V2H12ZM2 17V6H18V10H20V6C20 4.89 19.11 4 18 4H14V2C14 0.89 13.11 0 12 0H8C6.89 0 6 0.89 6 2V4H2C0.89 4 0.00999999 4.89 0.00999999 6L0 17C0 18.11 0.89 19 2 19H13V17H2Z" fill="#383B3C"/>
<path d="M12 4V5H13V4H12ZM12 2H13V1H12V2ZM8 4H7V5H8V4ZM8 2V1H7V2H8ZM2 6V5H1V6H2ZM2 17H1V18H2V17ZM18 6H19V5H18V6ZM18 10H17V11H18V10ZM20 10V11H21V10H20ZM14 4H13V5H14V4ZM6 4V5H7V4H6ZM0.00999999 6L1.01 6.00091V6H0.00999999ZM0 17L-1 16.9991V17H0ZM13 19V20H14V19H13ZM13 17H14V16H13V17ZM13 4V2H11V4H13ZM8 5H12V3H8V5ZM7 2V4H9V2H7ZM12 1H8V3H12V1ZM1 6V17H3V6H1ZM18 5H2V7H18V5ZM19 10V6H17V10H19ZM18 11H20V9H18V11ZM19 6V10H21V6H19ZM18 5C18.5577 5 19 5.44228 19 6H21C21 4.33772 19.6623 3 18 3V5ZM14 5H18V3H14V5ZM13 2V4H15V2H13ZM12 1C12.5577 1 13 1.44228 13 2H15C15 0.337715 13.6623 -1 12 -1V1ZM8 1H12V-1H8V1ZM7 2C7 1.44228 7.44228 1 8 1V-1C6.33772 -1 5 0.337715 5 2H7ZM7 4V2H5V4H7ZM2 5H6V3H2V5ZM1.01 6C1.01 5.43573 1.44882 5 2 5V3C0.331179 3 -0.99 4.34427 -0.99 6H1.01ZM1 17.0009L1.01 6.00091L-0.99 5.99909L-1 16.9991L1 17.0009ZM2 18C1.44228 18 1 17.5577 1 17H-1C-1 18.6623 0.337715 20 2 20V18ZM13 18H2V20H13V18ZM14 19V17H12V19H14ZM2 18H13V16H2V18Z" fill="#383B3C" mask="url(#path-2-inside-1_1661_6800)"/>
</svg>
