<svg width="18" height="17" viewBox="0 0 18 17" fill="none" xmlns="http://www.w3.org/2000/svg">
<mask id="path-1-inside-1_1661_6851" fill="white">
<path d="M10.5379 3.51262V1.75631H7.02525V3.51262H10.5379ZM1.75631 5.26894V14.9286H15.8068V5.26894H1.75631ZM15.8068 3.51262C16.7816 3.51262 17.5631 4.29418 17.5631 5.26894V14.9286C17.5631 15.9034 16.7816 16.685 15.8068 16.685H1.75631C0.781559 16.685 0 15.9034 0 14.9286L0.00878155 5.26894C0.00878155 4.29418 0.781559 3.51262 1.75631 3.51262H5.26894V1.75631C5.26894 0.781559 6.05049 0 7.02525 0H10.5379C11.5126 0 12.2942 0.781559 12.2942 1.75631V3.51262H15.8068Z"/>
</mask>
<path d="M10.5379 3.51262V1.75631H7.02525V3.51262H10.5379ZM1.75631 5.26894V14.9286H15.8068V5.26894H1.75631ZM15.8068 3.51262C16.7816 3.51262 17.5631 4.29418 17.5631 5.26894V14.9286C17.5631 15.9034 16.7816 16.685 15.8068 16.685H1.75631C0.781559 16.685 0 15.9034 0 14.9286L0.00878155 5.26894C0.00878155 4.29418 0.781559 3.51262 1.75631 3.51262H5.26894V1.75631C5.26894 0.781559 6.05049 0 7.02525 0H10.5379C11.5126 0 12.2942 0.781559 12.2942 1.75631V3.51262H15.8068Z" fill="#383B3C"/>
<path d="M10.5379 3.51262V4.51262H11.5379V3.51262H10.5379ZM10.5379 1.75631H11.5379V0.756312H10.5379V1.75631ZM7.02525 1.75631V0.756312H6.02525V1.75631H7.02525ZM7.02525 3.51262H6.02525V4.51262H7.02525V3.51262ZM1.75631 5.26894V4.26894H0.756312V5.26894H1.75631ZM1.75631 14.9286H0.756312V15.9286H1.75631V14.9286ZM15.8068 14.9286V15.9286H16.8068V14.9286H15.8068ZM15.8068 5.26894H16.8068V4.26894H15.8068V5.26894ZM0 14.9286L-1 14.9277V14.9286H0ZM0.00878155 5.26894L1.00878 5.26984V5.26894H0.00878155ZM5.26894 3.51262V4.51262H6.26894V3.51262H5.26894ZM12.2942 3.51262H11.2942V4.51262H12.2942V3.51262ZM11.5379 3.51262V1.75631H9.53787V3.51262H11.5379ZM10.5379 0.756312H7.02525V2.75631H10.5379V0.756312ZM6.02525 1.75631V3.51262H8.02525V1.75631H6.02525ZM7.02525 4.51262H10.5379V2.51262H7.02525V4.51262ZM0.756312 5.26894V14.9286H2.75631V5.26894H0.756312ZM1.75631 15.9286H15.8068V13.9286H1.75631V15.9286ZM16.8068 14.9286V5.26894H14.8068V14.9286H16.8068ZM15.8068 4.26894H1.75631V6.26894H15.8068V4.26894ZM15.8068 4.51262C16.2293 4.51262 16.5631 4.84647 16.5631 5.26894H18.5631C18.5631 3.7419 17.3338 2.51262 15.8068 2.51262V4.51262ZM16.5631 5.26894V14.9286H18.5631V5.26894H16.5631ZM16.5631 14.9286C16.5631 15.3511 16.2293 15.685 15.8068 15.685V17.685C17.3338 17.685 18.5631 16.4557 18.5631 14.9286H16.5631ZM15.8068 15.685H1.75631V17.685H15.8068V15.685ZM1.75631 15.685C1.33384 15.685 1 15.3511 1 14.9286H-1C-1 16.4557 0.229274 17.685 1.75631 17.685V15.685ZM1 14.9296L1.00878 5.26984L-0.991218 5.26803L-1 14.9277L1 14.9296ZM1.00878 5.26894C1.00878 4.83991 1.34038 4.51262 1.75631 4.51262V2.51262C0.222738 2.51262 -0.991218 3.74846 -0.991218 5.26894H1.00878ZM1.75631 4.51262H5.26894V2.51262H1.75631V4.51262ZM6.26894 3.51262V1.75631H4.26894V3.51262H6.26894ZM6.26894 1.75631C6.26894 1.33384 6.60278 1 7.02525 1V-1C5.49821 -1 4.26894 0.229274 4.26894 1.75631H6.26894ZM7.02525 1H10.5379V-1H7.02525V1ZM10.5379 1C10.9603 1 11.2942 1.33384 11.2942 1.75631H13.2942C13.2942 0.229274 12.0649 -1 10.5379 -1V1ZM11.2942 1.75631V3.51262H13.2942V1.75631H11.2942ZM12.2942 4.51262H15.8068V2.51262H12.2942V4.51262Z" fill="#383B3C" mask="url(#path-1-inside-1_1661_6851)"/>
</svg>
