<svg width="18" height="22" viewBox="0 0 18 22" fill="none" xmlns="http://www.w3.org/2000/svg">
<path d="M4.4 7.7C3.94437 7.7 3.575 8.06937 3.575 8.525C3.575 8.98063 3.94437 9.35 4.4 9.35H13.2C13.6556 9.35 14.025 8.98063 14.025 8.525C14.025 8.06937 13.6556 7.7 13.2 7.7H4.4Z" fill="#383B3C"/>
<path d="M7.975 12.925C7.975 12.4694 8.34437 12.1 8.8 12.1H13.2C13.6556 12.1 14.025 12.4694 14.025 12.925C14.025 13.3806 13.6556 13.75 13.2 13.75H8.8C8.34437 13.75 7.975 13.3806 7.975 12.925Z" fill="#383B3C"/>
<path d="M6.6 16.5C6.14437 16.5 5.775 16.8694 5.775 17.325C5.775 17.7806 6.14437 18.15 6.6 18.15H13.2C13.6556 18.15 14.025 17.7806 14.025 17.325C14.025 16.8694 13.6556 16.5 13.2 16.5H6.6Z" fill="#383B3C"/>
<path d="M13.1848 2.19938C13.0477 0.962195 11.9987 0 10.725 0H6.875C5.60126 0 4.55225 0.962195 4.41517 2.19938L2.475 2.2C1.1081 2.2 0 3.3081 0 4.675V19.525C0 20.8919 1.1081 22 2.475 22H15.125C16.4919 22 17.6 20.8919 17.6 19.525V4.675C17.6 3.3081 16.4919 2.2 15.125 2.2L13.1848 2.19938ZM13.1943 2.30555L13.2 2.475C13.2 2.41805 13.1981 2.36154 13.1943 2.30555ZM6.875 4.95H10.725C11.583 4.95 12.3391 4.51337 12.7831 3.85018L15.125 3.85C15.5806 3.85 15.95 4.21937 15.95 4.675V19.525C15.95 19.9806 15.5806 20.35 15.125 20.35H2.475C2.01937 20.35 1.65 19.9806 1.65 19.525V4.675C1.65 4.21937 2.01937 3.85 2.475 3.85L4.81692 3.85022C5.26093 4.51341 6.01696 4.95 6.875 4.95ZM6.875 1.65H10.725C11.1806 1.65 11.55 2.01937 11.55 2.475C11.55 2.93063 11.1806 3.3 10.725 3.3H6.875C6.41936 3.3 6.05 2.93063 6.05 2.475C6.05 2.01937 6.41936 1.65 6.875 1.65Z" fill="#383B3C"/>
</svg>
