<svg width="22" height="22" viewBox="0 0 22 22" fill="none" xmlns="http://www.w3.org/2000/svg">
<path d="M17.8108 11.8984C17.8475 11.605 17.875 11.3117 17.875 11C17.875 10.6884 17.8475 10.395 17.8108 10.1017L19.745 8.58921C19.9191 8.45171 19.965 8.20421 19.855 8.00254L18.0216 4.83087C17.9391 4.68421 17.7833 4.60171 17.6183 4.60171C17.5633 4.60171 17.5083 4.61087 17.4625 4.62921L15.18 5.54587C14.7033 5.17921 14.19 4.87671 13.6308 4.64754L13.2825 2.21837C13.255 1.99837 13.0625 1.83337 12.8333 1.83337H9.16664C8.93747 1.83337 8.74497 1.99837 8.71747 2.21837L8.36914 4.64754C7.80997 4.87671 7.29664 5.18837 6.81997 5.54587L4.53747 4.62921C4.48247 4.61087 4.42747 4.60171 4.37247 4.60171C4.21664 4.60171 4.06081 4.68421 3.97831 4.83087L2.14497 8.00254C2.02581 8.20421 2.08081 8.45171 2.25497 8.58921L4.18914 10.1017C4.15247 10.395 4.12497 10.6975 4.12497 11C4.12497 11.3025 4.15247 11.605 4.18914 11.8984L2.25497 13.4109C2.08081 13.5484 2.03497 13.7959 2.14497 13.9975L3.97831 17.1692C4.06081 17.3159 4.21664 17.3984 4.38164 17.3984C4.43664 17.3984 4.49164 17.3892 4.53747 17.3709L6.81997 16.4542C7.29664 16.8209 7.80997 17.1234 8.36914 17.3525L8.71747 19.7817C8.74497 20.0017 8.93747 20.1667 9.16664 20.1667H12.8333C13.0625 20.1667 13.255 20.0017 13.2825 19.7817L13.6308 17.3525C14.19 17.1234 14.7033 16.8117 15.18 16.4542L17.4625 17.3709C17.5175 17.3892 17.5725 17.3984 17.6275 17.3984C17.7833 17.3984 17.9391 17.3159 18.0216 17.1692L19.855 13.9975C19.965 13.7959 19.9191 13.5484 19.745 13.4109L17.8108 11.8984ZM15.9958 10.3309C16.0325 10.615 16.0416 10.8075 16.0416 11C16.0416 11.1925 16.0233 11.3942 15.9958 11.6692L15.8675 12.705L16.6833 13.3467L17.6733 14.1167L17.0316 15.2259L15.8675 14.7584L14.9141 14.3734L14.0891 14.9967C13.695 15.29 13.3191 15.51 12.9433 15.6659L11.9716 16.06L11.825 17.0959L11.6416 18.3334H10.3583L10.1841 17.0959L10.0375 16.06L9.06581 15.6659C8.67164 15.5009 8.30497 15.29 7.93831 15.015L7.10414 14.3734L6.13247 14.7675L4.96831 15.235L4.32664 14.1259L5.31664 13.3559L6.13247 12.7142L6.00414 11.6784C5.97664 11.3942 5.95831 11.1834 5.95831 11C5.95831 10.8167 5.97664 10.6059 6.00414 10.3309L6.13247 9.29504L5.31664 8.65337L4.32664 7.88338L4.96831 6.77421L6.13247 7.24171L7.08581 7.62671L7.91081 7.00337C8.30497 6.71004 8.68081 6.49004 9.05664 6.33421L10.0283 5.94004L10.175 4.90421L10.3583 3.66671H11.6325L11.8066 4.90421L11.9533 5.94004L12.925 6.33421C13.3191 6.49921 13.6858 6.71004 14.0525 6.98504L14.8866 7.62671L15.8583 7.23254L17.0225 6.76504L17.6641 7.87421L16.6833 8.65337L15.8675 9.29504L15.9958 10.3309ZM11 7.33337C8.97414 7.33337 7.33331 8.97421 7.33331 11C7.33331 13.0259 8.97414 14.6667 11 14.6667C13.0258 14.6667 14.6666 13.0259 14.6666 11C14.6666 8.97421 13.0258 7.33337 11 7.33337ZM11 12.8334C9.99164 12.8334 9.16664 12.0084 9.16664 11C9.16664 9.99171 9.99164 9.16671 11 9.16671C12.0083 9.16671 12.8333 9.99171 12.8333 11C12.8333 12.0084 12.0083 12.8334 11 12.8334Z" fill="#383B3C"/>
</svg>
