<svg width="20" height="22" viewBox="0 0 20 22" fill="none" xmlns="http://www.w3.org/2000/svg">
<path d="M18.15 1.65L16.5 0L14.85 1.65L13.2 0L11.55 1.65L9.9 0L8.25 1.65L6.6 0L4.95 1.65L3.3 0V15.4H0V18.7C0 20.526 1.474 22 3.3 22H16.5C18.326 22 19.8 20.526 19.8 18.7V0L18.15 1.65ZM13.2 19.8H3.3C2.695 19.8 2.2 19.305 2.2 18.7V17.6H13.2V19.8ZM17.6 18.7C17.6 19.305 17.105 19.8 16.5 19.8C15.895 19.8 15.4 19.305 15.4 18.7V15.4H5.5V3.3H17.6V18.7Z" fill="#383B3C"/>
<path d="M11.7608 8.7449C10.5343 8.4204 10.1399 8.0849 10.1399 7.5624C10.1399 6.9629 10.6856 6.5449 11.5987 6.5449C12.5604 6.5449 12.9169 7.0124 12.9494 7.6999H14.1434C14.1055 6.7539 13.5383 5.8849 12.4091 5.6044V4.3999H10.7883V5.5879C9.74013 5.8189 8.8973 6.5119 8.8973 7.5734C8.8973 8.8439 9.92922 9.4764 11.4366 9.8449C12.7873 10.1749 13.0574 10.6589 13.0574 11.1704C13.0574 11.5499 12.7927 12.1549 11.5987 12.1549C10.4857 12.1549 10.0481 11.6489 9.98865 10.9999H8.80005C8.86488 12.2044 9.75093 12.8809 10.7883 13.1064V14.2999H12.4091V13.1174C13.4626 12.9139 14.3 12.2924 14.3 11.1649C14.3 9.6029 12.9872 9.0694 11.7608 8.7449Z" fill="#383B3C"/>
</svg>
