<svg width="18" height="18" viewBox="0 0 18 18" fill="none" xmlns="http://www.w3.org/2000/svg">
<path d="M7.68328 1.68733L7.68328 9.45004V10.2H8.43328H16.081C15.9592 11.4799 15.5271 12.7131 14.8191 13.7874C13.9736 15.0703 12.7729 16.0686 11.3702 16.6577C9.9675 17.2467 8.42466 17.4007 6.93629 17.1005C5.44786 16.8004 4.07922 16.0592 3.00401 14.9691C1.9287 13.8789 1.19526 12.4887 0.898016 10.9737C0.600764 9.4586 0.753413 7.8883 1.33624 6.46177C1.91903 5.03533 2.90526 3.81779 4.16864 2.96195C5.22276 2.24786 6.43064 1.81206 7.68328 1.68733ZM10.3167 0.787251C11.0671 0.861972 11.8041 1.04858 12.5036 1.34233C13.435 1.73348 14.2821 2.30709 14.996 3.0309C15.7099 3.75473 16.2768 4.61461 16.6638 5.56169C16.9561 6.27712 17.1413 7.03156 17.2144 7.79996H10.3167L10.3167 0.787251Z" stroke="#383B3C" stroke-width="1.5"/>
</svg>
