<svg width="22" height="22" viewBox="0 0 22 22" fill="none" xmlns="http://www.w3.org/2000/svg">
<path d="M19.469 10.622L11.369 2.522C11.045 2.198 10.595 2 10.1 2H3.8C2.81 2 2 2.81 2 3.8V10.1C2 10.595 2.198 11.045 2.531 11.378L10.631 19.478C10.955 19.802 11.405 20 11.9 20C12.395 20 12.845 19.802 13.169 19.469L19.469 13.169C19.802 12.845 20 12.395 20 11.9C20 11.405 19.793 10.946 19.469 10.622ZM11.9 18.209L3.8 10.1V3.8H10.1V3.791L18.2 11.891L11.9 18.209Z" fill="#383B3C"/>
<path d="M6 7C6.55228 7 7 6.55228 7 6C7 5.44772 6.55228 5 6 5C5.44772 5 5 5.44772 5 6C5 6.55228 5.44772 7 6 7Z" fill="#383B3C"/>
</svg>
