<svg width="6" height="7" viewBox="0 0 6 7" fill="none" xmlns="http://www.w3.org/2000/svg">
<path d="M3.02135 3.18956V3.35056L1.27835 6.07356L0.872345 5.87756C0.765012 5.82623 0.699679 5.7539 0.676345 5.66056C0.657679 5.56256 0.681012 5.4599 0.746346 5.35256L1.85235 3.52556C1.88968 3.46956 1.92235 3.42056 1.95035 3.37856C1.98301 3.3319 2.01801 3.29456 2.05535 3.26656C2.01801 3.24323 1.98301 3.21056 1.95035 3.16856C1.92235 3.1219 1.88968 3.07056 1.85235 3.01456L0.746346 1.18756C0.681012 1.08023 0.657679 0.979896 0.676345 0.886562C0.699679 0.788562 0.765012 0.713896 0.872345 0.662562L1.27835 0.466562L3.02135 3.18956ZM5.09335 3.18956V3.35056L3.35035 6.07356L2.94435 5.87756C2.83701 5.82623 2.77168 5.7539 2.74835 5.66056C2.72968 5.56256 2.75301 5.4599 2.81835 5.35256L3.92435 3.52556C3.96168 3.46956 3.99435 3.42056 4.02235 3.37856C4.05501 3.3319 4.09001 3.29456 4.12735 3.26656C4.09001 3.24323 4.05501 3.21056 4.02235 3.16856C3.99435 3.1219 3.96168 3.07056 3.92435 3.01456L2.81835 1.18756C2.75301 1.08023 2.72968 0.979896 2.74835 0.886562C2.77168 0.788562 2.83701 0.713896 2.94435 0.662562L3.35035 0.466562L5.09335 3.18956Z" fill="#E24C3B"/>
</svg>
