<svg width="6" height="7" viewBox="0 0 6 7" fill="none" xmlns="http://www.w3.org/2000/svg">
<path d="M2.83956 5.35305C2.90489 5.46038 2.92589 5.56305 2.90256 5.66105C2.88389 5.75438 2.82089 5.82672 2.71356 5.87805L2.30756 6.07405L0.564559 3.35105V3.19005L2.30756 0.46705L2.71356 0.66305C2.82089 0.714384 2.88389 0.78905 2.90256 0.88705C2.92589 0.980384 2.90489 1.08072 2.83956 1.18805L1.73356 3.01505C1.66823 3.13172 1.60289 3.21572 1.53756 3.26705C1.60289 3.32772 1.66823 3.41405 1.73356 3.52605L2.83956 5.35305ZM4.91156 5.35305C4.97689 5.46038 4.99789 5.56305 4.97456 5.66105C4.95589 5.75438 4.89289 5.82672 4.78556 5.87805L4.37956 6.07405L2.63656 3.35105V3.19005L4.37956 0.46705L4.78556 0.66305C4.89289 0.714384 4.95589 0.78905 4.97456 0.88705C4.99789 0.980384 4.97689 1.08072 4.91156 1.18805L3.80556 3.01505C3.74023 3.13172 3.67489 3.21572 3.60956 3.26705C3.67489 3.32772 3.74023 3.41405 3.80556 3.52605L4.91156 5.35305Z" fill="#E24C3B"/>
</svg>
