<svg width="44" height="44" viewBox="0 0 44 44" fill="none" xmlns="http://www.w3.org/2000/svg">
<path d="M38.5 0H5.5C2.46243 0 0 2.46243 0 5.5V38.5C0 41.5376 2.46243 44 5.5 44H38.5C41.5376 44 44 41.5376 44 38.5V5.5C44 2.46243 41.5376 0 38.5 0Z" fill="#F9DBD8"/>
<path d="M35.9954 10.6696H18.7924C18.3194 9.26489 16.9907 8.25 15.4286 8.25C13.8664 8.25 12.5377 9.26489 12.0648 10.6696H9.3795C8.75571 10.6696 8.25 11.1753 8.25 11.7991C8.25 12.4229 8.75571 12.9286 9.3795 12.9286H12.0648C12.5378 14.3333 13.8665 15.3482 15.4286 15.3482C16.9908 15.3482 18.3195 14.3333 18.7924 12.9286H35.9955C36.6193 12.9286 37.125 12.4229 37.125 11.7991C37.125 11.1753 36.6193 10.6696 35.9954 10.6696ZM15.4286 13.0892C14.7172 13.0892 14.1384 12.5105 14.1384 11.7991C14.1384 11.0878 14.7172 10.509 15.4286 10.509C16.1399 10.509 16.7187 11.0878 16.7187 11.7991C16.7187 12.5105 16.1399 13.0892 15.4286 13.0892Z" fill="#E24C3B"/>
<path d="M35.9954 20.3483H33.3101C32.8371 18.9436 31.5084 17.9287 29.9463 17.9287C28.3842 17.9287 27.0555 18.9436 26.5826 20.3483H9.3795C8.75571 20.3483 8.25 20.854 8.25 21.4778C8.25 22.1016 8.75571 22.6073 9.3795 22.6073H26.5826C27.0555 24.012 28.3843 25.0269 29.9464 25.0269C31.5085 25.0269 32.8372 24.012 33.3102 22.6073H35.9955C36.6193 22.6073 37.125 22.1016 37.125 21.4778C37.125 20.854 36.6193 20.3483 35.9954 20.3483ZM29.9464 22.7679C29.235 22.7679 28.6563 22.1892 28.6563 21.4778C28.6563 20.7665 29.235 20.1877 29.9464 20.1877C30.6577 20.1877 31.2365 20.7665 31.2365 21.4778C31.2365 22.1892 30.6577 22.7679 29.9464 22.7679Z" fill="#E24C3B"/>
<path d="M35.9954 30.028H23.6316C23.1587 28.6233 21.83 27.6084 20.2679 27.6084C18.7057 27.6084 17.377 28.6233 16.9041 30.028H9.3795C8.75571 30.028 8.25 30.5337 8.25 31.1575C8.25 31.7813 8.75571 32.287 9.3795 32.287H16.9041C17.377 33.6917 18.7057 34.7066 20.2679 34.7066C21.83 34.7066 23.1587 33.6917 23.6316 32.287H35.9955C36.6193 32.287 37.125 31.7813 37.125 31.1575C37.125 30.5337 36.6193 30.028 35.9954 30.028ZM20.2679 32.4477C19.5565 32.4477 18.9777 31.8689 18.9777 31.1576C18.9777 30.4462 19.5565 29.8675 20.2679 29.8675C20.9792 29.8675 21.558 30.4461 21.558 31.1575C21.558 31.8689 20.9792 32.4477 20.2679 32.4477Z" fill="#E24C3B"/>
</svg>
