<svg width="16" height="13" viewBox="0 0 16 13" fill="none" xmlns="http://www.w3.org/2000/svg">
<path d="M8.13614 2.36667C10.683 2.36667 12.9544 3.78667 14.0632 6.03333C13.6667 6.84667 13.1089 7.54667 12.4437 8.11333L13.3912 9.05334C14.3253 8.23333 15.0645 7.20667 15.5281 6.03333C14.3656 3.10667 11.4961 1.03333 8.13614 1.03333C7.2827 1.03333 6.46286 1.16667 5.69006 1.41333L6.79886 2.51333C7.23566 2.42667 7.67918 2.36667 8.13614 2.36667ZM7.4171 3.12667L8.80814 4.50667C9.19118 4.67333 9.5003 4.98 9.6683 5.36L11.0593 6.74C11.1131 6.51333 11.1534 6.27333 11.1534 6.02667C11.1601 4.37333 9.8027 3.03333 8.13614 3.03333C7.8875 3.03333 7.6523 3.06667 7.4171 3.12667ZM1.42286 0.946667L3.22382 2.73333C2.12846 3.58667 1.26158 4.72 0.744141 6.03333C1.9067 8.96 4.77614 11.0333 8.13614 11.0333C9.15758 11.0333 10.1387 10.84 11.0392 10.4867L13.3374 12.7667L14.2849 11.8267L2.37038 0L1.42286 0.946667ZM6.46286 5.94667L8.21678 7.68667C8.1899 7.69333 8.16302 7.7 8.13614 7.7C7.20878 7.7 6.45614 6.95333 6.45614 6.03333C6.45614 6 6.46286 5.98 6.46286 5.94667ZM4.17806 3.68L5.35406 4.84667C5.1995 5.21333 5.11214 5.61333 5.11214 6.03333C5.11214 7.68667 6.46958 9.03333 8.13614 9.03333C8.5595 9.03333 8.9627 8.94667 9.32558 8.79333L9.98414 9.44667C9.39278 9.60667 8.77454 9.7 8.13614 9.7C5.58926 9.7 3.3179 8.28 2.2091 6.03333C2.6795 5.08 3.36494 4.29333 4.17806 3.68Z" fill="#3F3A38"/>
</svg>
