<svg width="9" height="9" viewBox="0 0 9 9" fill="none" xmlns="http://www.w3.org/2000/svg">
<path d="M4.5 0C6.9813 0 9 2.01873 9 4.50003C9 6.98133 6.9813 9 4.5 9C2.0187 9 -2.23517e-08 6.98133 -2.23517e-08 4.50003C-2.23517e-08 2.01873 2.0187 0 4.5 0ZM4.5 8.18182C6.53018 8.18182 8.18182 6.53018 8.18182 4.50003C8.18182 2.46987 6.53018 0.818182 4.5 0.818182C2.46982 0.818182 0.818182 2.46987 0.818182 4.50003C0.818182 6.53018 2.46985 8.18182 4.5 8.18182Z" fill="#90A4AE"/>
<path d="M4.5 2C4.77571 2 5 2.2244 5 2.50023C5 2.7758 4.77571 3 4.5 3C4.22429 3 4 2.7758 4 2.50023C4 2.2244 4.22429 2 4.5 2Z" fill="#90A4AE"/>
<path d="M4.5 4C4.77613 4 5 4.1679 5 4.375V6.625C5 6.8321 4.77613 7 4.5 7C4.22387 7 4 6.8321 4 6.625V4.375C4 4.1679 4.22387 4 4.5 4Z" fill="#90A4AE"/>
</svg>
