<svg width="241" height="79" viewBox="0 0 241 79" fill="none" xmlns="http://www.w3.org/2000/svg">
<path fill-rule="evenodd" clip-rule="evenodd" d="M50.9714 26.383C47.5215 15.433 38.2064 8.91413 27.314 8.52175C23.8794 8.38011 20.451 8.93121 17.2208 10.1442C15.7726 10.6917 5.82441 14.6975 1.75566 25.8391C0.974097 27.978 -1.68005 35.5937 1.59829 43.8026C2.41522 45.8502 4.27189 50.5003 8.96836 53.3108C17.677 58.5248 28.9496 53.0188 28.8081 52.6319C28.7993 52.6082 28.7728 52.5917 28.725 52.5826C26.4121 52.1629 20.4973 53.6064 15.083 48.334C9.52182 42.9193 10.894 33.6136 10.9665 33.1628C11.2211 31.5952 12.1424 25.8884 17.0829 22.118C21.4398 18.791 27.7454 17.6814 33.0767 20.4171C37.4443 22.66 39.4176 26.5746 40.0453 27.9744H51.4523L50.9714 26.383Z" fill="#2D2926"/>
<path fill-rule="evenodd" clip-rule="evenodd" d="M7.41827 54.09C6.69555 53.227 11.8214 56.4217 18.8752 56.3883C21.5673 56.3754 28.6319 56.2365 34.6557 50.9695C38.4409 47.6618 40.2297 43.7245 41.0644 41.3614H25.7825V31.433H52.9224V61.4224H44.102L43.9101 53.6456C43.5989 54.1262 43.2643 54.5904 42.9073 55.0364C38.2512 60.8479 30.9825 61.8572 29.2082 62.1035C17.3556 63.7499 7.96753 54.7549 7.41827 54.09Z" fill="#E24C3B"/>
<path fill-rule="evenodd" clip-rule="evenodd" d="M10.1725 53.1447C5.52204 50.5094 3.68306 46.1477 2.8732 44.2296C-0.373308 36.53 2.25431 29.3906 3.0288 27.3849C7.06041 16.9386 16.9131 13.1828 18.3472 12.67C21.56 11.5297 24.9498 11.0137 28.3448 11.1479C37.7077 11.4673 46.8354 20.5777 47.3854 27.9726H51.4523L51.302 27.1057C50.188 22.0851 47.1343 17.7763 43.5659 14.6464C39.1453 10.7647 33.3437 8.73893 27.314 8.52175C23.8794 8.38011 20.451 8.93121 17.2208 10.1442C15.7726 10.6917 5.82441 14.6975 1.75566 25.8391C0.974097 27.978 -1.68005 35.5937 1.59829 43.8026C2.41522 45.8502 4.27189 50.5003 8.96836 53.3108C14.0026 56.3257 19.8961 55.7563 23.9437 54.665C20.0093 55.5045 14.7364 55.7308 10.1725 53.1447Z" fill="#2D2926"/>
<path d="M57.6384 46.6042C57.6384 43.5699 58.2029 40.9062 59.3319 38.6129C60.4962 36.3196 62.0662 34.5555 64.042 33.3206C66.0178 32.0858 68.2229 31.4684 70.6573 31.4684C72.7389 31.4684 74.5559 31.8917 76.1083 32.7385C77.696 33.5853 78.9132 34.6966 79.7599 36.0726V31.8917H88.8097V61.4224H79.7599V57.2416C78.8779 58.6175 77.6431 59.7289 76.0554 60.5757C74.503 61.4224 72.686 61.8458 70.6044 61.8458C68.2052 61.8458 66.0178 61.2284 64.042 59.9935C62.0662 58.7234 60.4962 56.9417 59.3319 54.6484C58.2029 52.3198 57.6384 49.6384 57.6384 46.6042ZM79.7599 46.6571C79.7599 44.3991 79.1249 42.6173 77.8547 41.3119C76.6199 40.0065 75.1028 39.3538 73.3034 39.3538C71.5041 39.3538 69.9693 40.0065 68.6992 41.3119C67.4643 42.5821 66.8469 44.3461 66.8469 46.6042C66.8469 48.8622 67.4643 50.6615 68.6992 52.0022C69.9693 53.3077 71.5041 53.9604 73.3034 53.9604C75.1028 53.9604 76.6199 53.3077 77.8547 52.0022C79.1249 50.6968 79.7599 48.9151 79.7599 46.6571Z" fill="#2D2926"/>
<path d="M104.406 36.0726C105.289 34.6966 106.506 33.5853 108.058 32.7385C109.611 31.8917 111.428 31.4684 113.509 31.4684C115.944 31.4684 118.149 32.0858 120.124 33.3206C122.1 34.5555 123.653 36.3196 124.782 38.6129C125.946 40.9062 126.528 43.5699 126.528 46.6042C126.528 49.6384 125.946 52.3198 124.782 54.6484C123.653 56.9417 122.1 58.7234 120.124 59.9935C118.149 61.2284 115.944 61.8458 113.509 61.8458C111.463 61.8458 109.646 61.4224 108.058 60.5757C106.506 59.7289 105.289 58.6352 104.406 57.2945L104.354 76.4996H95.3568V31.8917H104.406V36.0726ZM117.32 46.6042C117.32 44.3461 116.684 42.5821 115.414 41.3119C114.179 40.0065 112.645 39.3538 110.81 39.3538C109.011 39.3538 107.476 40.0065 106.206 41.3119C104.971 42.6173 104.354 44.3991 104.354 46.6571C104.354 48.9151 104.971 50.6968 106.206 52.0022C107.476 53.3077 109.011 53.9604 110.81 53.9604C112.609 53.9604 114.144 53.3077 115.414 52.0022C116.684 50.6615 117.32 48.8622 117.32 46.6042Z" fill="#2D2926"/>
<path d="M143.289 61.8458C140.714 61.8458 138.42 61.4048 136.409 60.5228C134.398 59.6407 132.811 58.4411 131.646 56.924C130.482 55.3716 129.829 53.6428 129.688 51.7376H138.632C138.738 52.7608 139.214 53.5899 140.061 54.225C140.908 54.8601 141.948 55.1776 143.183 55.1776C144.312 55.1776 145.177 54.9659 145.777 54.5425C146.412 54.0839 146.729 53.5017 146.729 52.7961C146.729 51.9493 146.288 51.3319 145.406 50.9438C144.524 50.5204 143.095 50.0618 141.119 49.5678C139.002 49.0739 137.238 48.5623 135.827 48.0331C134.416 47.4686 133.199 46.6042 132.175 45.4399C131.152 44.2403 130.641 42.635 130.641 40.6239C130.641 38.9304 131.099 37.3957 132.017 36.0197C132.969 34.6084 134.345 33.497 136.145 32.6856C137.979 31.8741 140.149 31.4684 142.654 31.4684C146.359 31.4684 149.269 32.3857 151.386 34.2203C153.538 36.055 154.773 38.4894 155.091 41.5236H146.729C146.588 40.5004 146.129 39.689 145.353 39.0892C144.612 38.4894 143.624 38.1895 142.389 38.1895C141.331 38.1895 140.52 38.4012 139.955 38.8246C139.391 39.2127 139.108 39.7595 139.108 40.4652C139.108 41.3119 139.549 41.947 140.431 42.3704C141.349 42.7937 142.76 43.2171 144.665 43.6405C146.853 44.205 148.634 44.7695 150.01 45.334C151.386 45.8632 152.586 46.7453 153.609 47.9801C154.667 49.1797 155.214 50.8027 155.25 52.849C155.25 54.5778 154.756 56.1302 153.768 57.5062C152.815 58.8469 151.422 59.9053 149.587 60.6815C147.788 61.4577 145.688 61.8458 143.289 61.8458Z" fill="#2D2926"/>
<path d="M107.441 72.22C107.441 71.765 107.518 71.3205 107.672 70.8865C107.833 70.4455 108.064 70.0465 108.365 69.6895C108.666 69.3255 109.037 69.0385 109.478 68.8285C109.919 68.6115 110.42 68.503 110.98 68.503C111.645 68.503 112.212 68.657 112.681 68.965C113.157 69.266 113.507 69.6545 113.731 70.1305L113.153 70.4875C112.992 70.1585 112.789 69.8995 112.544 69.7105C112.299 69.5145 112.037 69.3745 111.757 69.2905C111.484 69.2065 111.211 69.1645 110.938 69.1645C110.49 69.1645 110.094 69.2555 109.751 69.4375C109.408 69.6125 109.118 69.8505 108.88 70.1515C108.649 70.4455 108.474 70.778 108.355 71.149C108.236 71.513 108.176 71.884 108.176 72.262C108.176 72.675 108.246 73.0705 108.386 73.4485C108.526 73.8265 108.722 74.1625 108.974 74.4565C109.226 74.7435 109.52 74.9745 109.856 75.1495C110.199 75.3175 110.57 75.4015 110.969 75.4015C111.249 75.4015 111.536 75.3525 111.83 75.2545C112.124 75.1565 112.397 75.006 112.649 74.803C112.908 74.6 113.115 74.3375 113.269 74.0155L113.878 74.3305C113.724 74.7015 113.486 75.0165 113.164 75.2755C112.842 75.5345 112.481 75.7305 112.082 75.8635C111.69 75.9965 111.305 76.063 110.927 76.063C110.416 76.063 109.947 75.9545 109.52 75.7375C109.093 75.5135 108.722 75.2195 108.407 74.8555C108.099 74.4845 107.861 74.0715 107.693 73.6165C107.525 73.1545 107.441 72.689 107.441 72.22ZM114.597 74.425C114.597 74.082 114.695 73.788 114.891 73.543C115.087 73.291 115.357 73.0985 115.7 72.9655C116.05 72.8255 116.452 72.7555 116.907 72.7555C117.173 72.7555 117.45 72.7765 117.737 72.8185C118.024 72.8605 118.279 72.9235 118.503 73.0075V72.5455C118.503 72.0835 118.367 71.716 118.094 71.443C117.821 71.17 117.443 71.0335 116.96 71.0335C116.666 71.0335 116.375 71.0895 116.088 71.2015C115.808 71.3065 115.514 71.464 115.206 71.674L114.933 71.17C115.29 70.925 115.64 70.743 115.983 70.624C116.326 70.498 116.676 70.435 117.033 70.435C117.705 70.435 118.237 70.6275 118.629 71.0125C119.021 71.3975 119.217 71.9295 119.217 72.6085V75.139C119.217 75.237 119.238 75.3105 119.28 75.3595C119.322 75.4015 119.389 75.426 119.48 75.433V76C119.403 76.007 119.336 76.014 119.28 76.021C119.224 76.028 119.182 76.028 119.154 76.021C118.979 76.014 118.846 75.958 118.755 75.853C118.664 75.748 118.615 75.636 118.608 75.517L118.598 75.118C118.353 75.433 118.034 75.678 117.642 75.853C117.25 76.021 116.851 76.105 116.445 76.105C116.095 76.105 115.777 76.0315 115.49 75.8845C115.21 75.7305 114.989 75.5275 114.828 75.2755C114.674 75.0165 114.597 74.733 114.597 74.425ZM118.262 74.845C118.339 74.747 118.398 74.6525 118.44 74.5615C118.482 74.4705 118.503 74.39 118.503 74.32V73.522C118.265 73.431 118.017 73.361 117.758 73.312C117.506 73.263 117.25 73.2385 116.991 73.2385C116.48 73.2385 116.067 73.34 115.752 73.543C115.437 73.746 115.28 74.0225 115.28 74.3725C115.28 74.5755 115.332 74.768 115.437 74.95C115.542 75.125 115.696 75.272 115.899 75.391C116.102 75.503 116.34 75.559 116.613 75.559C116.956 75.559 117.275 75.4925 117.569 75.3595C117.87 75.2265 118.101 75.055 118.262 74.845ZM123.605 76.105C123.15 76.105 122.741 75.986 122.377 75.748C122.02 75.51 121.736 75.216 121.526 74.866V78.2365H120.812V70.5295H121.453V71.59C121.67 71.247 121.96 70.9705 122.324 70.7605C122.688 70.5435 123.077 70.435 123.49 70.435C123.868 70.435 124.214 70.5155 124.529 70.6765C124.844 70.8305 125.117 71.0405 125.348 71.3065C125.579 71.5725 125.758 71.877 125.884 72.22C126.017 72.556 126.083 72.906 126.083 73.27C126.083 73.781 125.978 74.2535 125.768 74.6875C125.565 75.1145 125.278 75.4575 124.907 75.7165C124.536 75.9755 124.102 76.105 123.605 76.105ZM123.406 75.475C123.707 75.475 123.976 75.4155 124.214 75.2965C124.452 75.1705 124.655 75.0025 124.823 74.7925C124.998 74.5825 125.131 74.348 125.222 74.089C125.313 73.823 125.359 73.55 125.359 73.27C125.359 72.976 125.306 72.696 125.201 72.43C125.103 72.164 124.96 71.9295 124.771 71.7265C124.582 71.5235 124.365 71.3625 124.12 71.2435C123.875 71.1245 123.609 71.065 123.322 71.065C123.14 71.065 122.951 71.1 122.755 71.17C122.559 71.24 122.37 71.3415 122.188 71.4745C122.013 71.6005 121.866 71.744 121.747 71.905C121.628 72.066 121.554 72.2375 121.526 72.4195V74.0995C121.638 74.3585 121.789 74.593 121.978 74.803C122.167 75.006 122.384 75.1705 122.629 75.2965C122.881 75.4155 123.14 75.475 123.406 75.475ZM129.888 75.7375C129.832 75.7585 129.745 75.797 129.626 75.853C129.507 75.909 129.363 75.958 129.195 76C129.027 76.042 128.845 76.063 128.649 76.063C128.446 76.063 128.254 76.0245 128.072 75.9475C127.897 75.8705 127.757 75.755 127.652 75.601C127.547 75.44 127.494 75.244 127.494 75.013V71.0965H126.738V70.5295H127.494V68.6815H128.208V70.5295H129.468V71.0965H128.208V74.8135C128.222 75.0095 128.292 75.1565 128.418 75.2545C128.551 75.3525 128.702 75.4015 128.87 75.4015C129.066 75.4015 129.244 75.37 129.405 75.307C129.566 75.237 129.664 75.188 129.699 75.16L129.888 75.7375ZM130.78 73.7425V70.5295H131.494V73.6165C131.494 74.2395 131.599 74.705 131.809 75.013C132.026 75.321 132.345 75.475 132.765 75.475C133.045 75.475 133.314 75.4155 133.573 75.2965C133.839 75.1705 134.074 74.9955 134.277 74.7715C134.48 74.5405 134.634 74.2745 134.739 73.9735V70.5295H135.453V75.139C135.453 75.237 135.474 75.3105 135.516 75.3595C135.558 75.4015 135.621 75.426 135.705 75.433V76C135.621 76.007 135.554 76.0105 135.505 76.0105C135.456 76.0175 135.411 76.021 135.369 76.021C135.229 76.007 135.106 75.951 135.001 75.853C134.903 75.755 134.851 75.636 134.844 75.496L134.823 74.761C134.585 75.181 134.259 75.51 133.846 75.748C133.44 75.986 132.999 76.105 132.523 76.105C131.949 76.105 131.515 75.9055 131.221 75.5065C130.927 75.1075 130.78 74.5195 130.78 73.7425ZM139.85 71.1595C139.374 71.1735 138.954 71.3065 138.59 71.5585C138.233 71.8105 137.981 72.157 137.834 72.598V76H137.12V70.5295H137.792V71.842C137.981 71.457 138.229 71.1455 138.537 70.9075C138.852 70.6695 139.185 70.5365 139.535 70.5085C139.605 70.5015 139.664 70.498 139.713 70.498C139.769 70.498 139.815 70.5015 139.85 70.5085V71.1595ZM143.042 76.105C142.65 76.105 142.286 76.0315 141.95 75.8845C141.614 75.7305 141.323 75.524 141.078 75.265C140.833 74.999 140.641 74.6945 140.501 74.3515C140.368 74.0085 140.301 73.641 140.301 73.249C140.301 72.738 140.417 72.269 140.648 71.842C140.886 71.415 141.211 71.0755 141.624 70.8235C142.037 70.5645 142.506 70.435 143.031 70.435C143.57 70.435 144.039 70.5645 144.438 70.8235C144.844 71.0825 145.163 71.4255 145.394 71.8525C145.625 72.2725 145.74 72.7345 145.74 73.2385C145.74 73.2945 145.74 73.3505 145.74 73.4065C145.74 73.4555 145.737 73.494 145.73 73.522H141.047C141.082 73.914 141.19 74.264 141.372 74.572C141.561 74.873 141.803 75.1145 142.097 75.2965C142.398 75.4715 142.723 75.559 143.073 75.559C143.43 75.559 143.766 75.468 144.081 75.286C144.403 75.104 144.627 74.866 144.753 74.572L145.373 74.74C145.261 74.999 145.089 75.2335 144.858 75.4435C144.627 75.6535 144.354 75.818 144.039 75.937C143.731 76.049 143.399 76.105 143.042 76.105ZM141.026 73.0075H145.068C145.04 72.6085 144.932 72.2585 144.743 71.9575C144.561 71.6565 144.319 71.422 144.018 71.254C143.724 71.079 143.399 70.9915 143.042 70.9915C142.685 70.9915 142.359 71.079 142.065 71.254C141.771 71.422 141.53 71.66 141.341 71.968C141.159 72.269 141.054 72.6155 141.026 73.0075ZM146.789 76V74.971H147.409V76H146.789ZM151.812 76V68.545H154.899C155.221 68.545 155.515 68.6115 155.781 68.7445C156.054 68.8775 156.288 69.0595 156.484 69.2905C156.68 69.5145 156.834 69.7665 156.946 70.0465C157.058 70.3195 157.114 70.5995 157.114 70.8865C157.114 71.2925 157.023 71.6775 156.841 72.0415C156.666 72.3985 156.418 72.689 156.096 72.913C155.774 73.137 155.396 73.249 154.962 73.249H152.547V76H151.812ZM152.547 72.598H154.93C155.224 72.598 155.48 72.5175 155.697 72.3565C155.914 72.1955 156.082 71.9855 156.201 71.7265C156.32 71.4675 156.379 71.1875 156.379 70.8865C156.379 70.5785 156.309 70.295 156.169 70.036C156.029 69.777 155.844 69.574 155.613 69.427C155.389 69.273 155.14 69.196 154.867 69.196H152.547V72.598ZM160.979 71.1595C160.503 71.1735 160.083 71.3065 159.719 71.5585C159.362 71.8105 159.11 72.157 158.963 72.598V76H158.249V70.5295H158.921V71.842C159.11 71.457 159.359 71.1455 159.667 70.9075C159.982 70.6695 160.314 70.5365 160.664 70.5085C160.734 70.5015 160.794 70.498 160.843 70.498C160.899 70.498 160.944 70.5015 160.979 70.5085V71.1595ZM161.983 76V70.5295H162.697V76H161.983ZM161.983 69.385V68.335H162.697V69.385H161.983ZM166.653 76.105C166.261 76.105 165.897 76.0315 165.561 75.8845C165.232 75.7305 164.945 75.524 164.7 75.265C164.462 74.999 164.276 74.698 164.143 74.362C164.01 74.019 163.944 73.6585 163.944 73.2805C163.944 72.8885 164.01 72.5245 164.143 72.1885C164.276 71.8455 164.465 71.5445 164.71 71.2855C164.955 71.0195 165.242 70.813 165.571 70.666C165.907 70.512 166.271 70.435 166.663 70.435C167.055 70.435 167.416 70.512 167.745 70.666C168.074 70.813 168.361 71.0195 168.606 71.2855C168.851 71.5445 169.04 71.8455 169.173 72.1885C169.306 72.5245 169.372 72.8885 169.372 73.2805C169.372 73.6585 169.306 74.019 169.173 74.362C169.04 74.698 168.851 74.999 168.606 75.265C168.368 75.524 168.081 75.7305 167.745 75.8845C167.416 76.0315 167.052 76.105 166.653 76.105ZM164.668 73.291C164.668 73.697 164.756 74.068 164.931 74.404C165.113 74.733 165.354 74.9955 165.655 75.1915C165.956 75.3805 166.289 75.475 166.653 75.475C167.017 75.475 167.349 75.377 167.65 75.181C167.951 74.985 168.193 74.719 168.375 74.383C168.557 74.04 168.648 73.669 168.648 73.27C168.648 72.864 168.557 72.493 168.375 72.157C168.193 71.821 167.951 71.555 167.65 71.359C167.349 71.163 167.017 71.065 166.653 71.065C166.289 71.065 165.956 71.1665 165.655 71.3695C165.361 71.5725 165.123 71.842 164.941 72.178C164.759 72.507 164.668 72.878 164.668 73.291ZM173.349 71.1595C172.873 71.1735 172.453 71.3065 172.089 71.5585C171.732 71.8105 171.48 72.157 171.333 72.598V76H170.619V70.5295H171.291V71.842C171.48 71.457 171.728 71.1455 172.036 70.9075C172.351 70.6695 172.684 70.5365 173.034 70.5085C173.104 70.5015 173.163 70.498 173.212 70.498C173.268 70.498 173.314 70.5015 173.349 70.5085V71.1595ZM174.353 76V70.5295H175.067V76H174.353ZM174.353 69.385V68.335H175.067V69.385H174.353ZM179.317 75.7375C179.261 75.7585 179.173 75.797 179.054 75.853C178.935 75.909 178.792 75.958 178.624 76C178.456 76.042 178.274 76.063 178.078 76.063C177.875 76.063 177.682 76.0245 177.5 75.9475C177.325 75.8705 177.185 75.755 177.08 75.601C176.975 75.44 176.923 75.244 176.923 75.013V71.0965H176.167V70.5295H176.923V68.6815H177.637V70.5295H178.897V71.0965H177.637V74.8135C177.651 75.0095 177.721 75.1565 177.847 75.2545C177.98 75.3525 178.13 75.4015 178.298 75.4015C178.494 75.4015 178.673 75.37 178.834 75.307C178.995 75.237 179.093 75.188 179.128 75.16L179.317 75.7375ZM180.261 76V70.5295H180.975V76H180.261ZM180.261 69.385V68.335H180.975V69.385H180.261ZM182.138 75.517L185.803 71.065H182.222V70.5295H186.611V71.0125L182.968 75.4645H186.601V76H182.138V75.517ZM190.071 76.105C189.679 76.105 189.315 76.0315 188.979 75.8845C188.643 75.7305 188.352 75.524 188.107 75.265C187.862 74.999 187.67 74.6945 187.53 74.3515C187.397 74.0085 187.33 73.641 187.33 73.249C187.33 72.738 187.446 72.269 187.677 71.842C187.915 71.415 188.24 71.0755 188.653 70.8235C189.066 70.5645 189.535 70.435 190.06 70.435C190.599 70.435 191.068 70.5645 191.467 70.8235C191.873 71.0825 192.192 71.4255 192.423 71.8525C192.654 72.2725 192.769 72.7345 192.769 73.2385C192.769 73.2945 192.769 73.3505 192.769 73.4065C192.769 73.4555 192.766 73.494 192.759 73.522H188.076C188.111 73.914 188.219 74.264 188.401 74.572C188.59 74.873 188.832 75.1145 189.126 75.2965C189.427 75.4715 189.752 75.559 190.102 75.559C190.459 75.559 190.795 75.468 191.11 75.286C191.432 75.104 191.656 74.866 191.782 74.572L192.402 74.74C192.29 74.999 192.118 75.2335 191.887 75.4435C191.656 75.6535 191.383 75.818 191.068 75.937C190.76 76.049 190.428 76.105 190.071 76.105ZM188.055 73.0075H192.097C192.069 72.6085 191.961 72.2585 191.772 71.9575C191.59 71.6565 191.348 71.422 191.047 71.254C190.753 71.079 190.428 70.9915 190.071 70.9915C189.714 70.9915 189.388 71.079 189.094 71.254C188.8 71.422 188.559 71.66 188.37 71.968C188.188 72.269 188.083 72.6155 188.055 73.0075ZM193.818 76V74.971H194.438V76H193.818ZM201.275 68.5975H201.968L203.018 71.2435L204.079 68.5975H204.782L203.48 71.779L204.908 75.1495L207.607 68.545H208.405L205.244 76H204.593L203.029 72.3145L201.454 76H200.813L197.663 68.545H198.451L201.16 75.1495L202.577 71.779L201.275 68.5975ZM209.359 76V70.5295H210.073V76H209.359ZM209.359 69.385V68.335H210.073V69.385H209.359ZM216.297 76H215.583V72.9445C215.583 72.3005 215.489 71.8315 215.3 71.5375C215.111 71.2365 214.813 71.086 214.407 71.086C214.127 71.086 213.851 71.156 213.578 71.296C213.305 71.429 213.063 71.6145 212.853 71.8525C212.65 72.0835 212.503 72.3495 212.412 72.6505V76H211.698V70.5295H212.349V71.7685C212.496 71.5025 212.689 71.2715 212.927 71.0755C213.165 70.8725 213.434 70.715 213.735 70.603C214.036 70.491 214.348 70.435 214.67 70.435C214.971 70.435 215.226 70.491 215.436 70.603C215.646 70.715 215.814 70.876 215.94 71.086C216.066 71.289 216.157 71.5375 216.213 71.8315C216.269 72.1185 216.297 72.4405 216.297 72.7975V76ZM217.767 76V74.971H218.387V76H217.767Z" fill="#686563"/>
<path d="M188.445 54.18H174.035L171.725 61H161.88L175.85 22.39H186.74L200.71 61H190.755L188.445 54.18ZM186.025 46.92L181.24 32.785L176.51 46.92H186.025ZM210.517 27.12C208.867 27.12 207.51 26.6433 206.447 25.69C205.42 24.7 204.907 23.49 204.907 22.06C204.907 20.5933 205.42 19.3833 206.447 18.43C207.51 17.44 208.867 16.945 210.517 16.945C212.13 16.945 213.45 17.44 214.477 18.43C215.54 19.3833 216.072 20.5933 216.072 22.06C216.072 23.49 215.54 24.7 214.477 25.69C213.45 26.6433 212.13 27.12 210.517 27.12ZM215.192 30.31V61H205.787V30.31H215.192Z" fill="#E24C3B"/>
</svg>
