<svg width="21" height="20" viewBox="0 0 21 20" fill="none" xmlns="http://www.w3.org/2000/svg">
<path d="M19.8743 18.0594L15.0371 13.3858C16.2361 11.9735 16.9588 10.1643 16.9588 8.19257C16.9588 3.6698 13.1605 0 8.47941 0C3.79418 0 0 3.6698 0 8.19257C0 12.7153 3.79418 16.3851 8.47941 16.3851C10.5202 16.3851 12.3886 15.6909 13.8504 14.5324L18.6875 19.202C19.016 19.5193 19.5458 19.5193 19.8743 19.202C20.2028 18.8885 20.2028 18.3728 19.8743 18.0594ZM8.47941 14.7546C4.7304 14.7546 1.68356 11.8108 1.68356 8.19257C1.68356 4.57435 4.7304 1.62661 8.47941 1.62661C12.2243 1.62661 15.2753 4.57435 15.2753 8.19257C15.2753 11.8108 12.2243 14.7546 8.47941 14.7546Z" fill="#A5A5A5"/>
</svg>
