<svg width="33" height="32" viewBox="0 0 33 32" fill="none" xmlns="http://www.w3.org/2000/svg">
<path d="M16.0713 0C7.24854 0 0.0712891 7.17725 0.0712891 16C0.0712891 24.8228 7.24854 32 16.0713 32C24.894 32 32.0713 24.8228 32.0713 16C32.0713 7.17725 24.894 0 16.0713 0Z" fill="#34890C"/>
<path d="M24.1797 12.6094L15.5129 21.2759C15.2529 21.5359 14.9116 21.6668 14.5703 21.6668C14.229 21.6668 13.8877 21.5359 13.6277 21.2759L9.29443 16.9426C8.77295 16.4214 8.77295 15.5786 9.29443 15.0574C9.81567 14.5359 10.6582 14.5359 11.1797 15.0574L14.5703 18.448L22.2944 10.7241C22.8157 10.2026 23.6582 10.2026 24.1797 10.7241C24.7009 11.2454 24.7009 12.0879 24.1797 12.6094Z" fill="#FAFAFA"/>
</svg>
